<svg width="297" height="66" viewBox="0 0 297 66" fill="none" xmlns="http://www.w3.org/2000/svg">
<g clip-path="url(#clip0)">
<path d="M90.7676 20.8379V44.2973H87.2865V23.5622H75.4811V44.146H72V20.8379H90.7676Z" fill="#422568"/>
<path d="M107.417 20.8379L117.406 44.2973H113.773L110.746 37.1838H100L97.1246 44.2973H93.6436L103.633 20.8379H107.417ZM101.211 34.3082H109.838L105.752 24.1676H105.298L101.211 34.3082Z" fill="#422568"/>
<path d="M142.681 20.8379V44.2973H139.2V23.5622H129.968V29.0109C129.968 34.3082 129.362 38.2433 128.151 40.8163C126.789 43.3892 124.973 44.6001 122.4 44.6001C121.795 44.6001 121.341 44.6 120.887 44.4487C120.433 44.4487 119.978 44.2973 119.524 43.9946L119.978 41.2703C120.281 41.4217 120.735 41.4217 121.038 41.573C121.341 41.573 121.643 41.573 122.097 41.573C123.46 41.573 124.368 40.8163 125.124 39.3028C126.184 37.1838 126.638 33.2487 126.638 27.4973V20.8379H142.681Z" fill="#422568"/>
<path d="M168.563 20.8379V44.2973H165.082V23.5622H155.85V29.0109C155.85 34.3082 155.244 38.2433 154.033 40.8163C152.822 43.2379 150.855 44.6001 148.433 44.6001C147.828 44.6001 147.374 44.6 146.92 44.4487C146.466 44.4487 146.012 44.2973 145.558 43.9946L146.012 41.2703C146.314 41.4217 146.768 41.4217 147.071 41.573C147.374 41.573 147.677 41.573 148.131 41.573C149.493 41.573 150.401 40.8163 151.158 39.3028C152.217 37.1838 152.671 33.2487 152.671 27.4973V20.8379H168.563Z" fill="#422568"/>
<path d="M176.585 20.8379V39.6055H176.736L190.66 20.8379H193.839V44.2973H190.509V26.1352H190.358L176.736 44.2973H173.104V20.8379H176.585Z" fill="#422568"/>
<path d="M222.595 32.4929C222.595 34.3091 222.292 35.974 221.687 37.4875C221.081 39.001 220.173 40.2118 218.963 41.2713C217.752 42.3307 216.541 43.2388 214.876 43.8442C213.363 44.4496 211.698 44.7523 209.881 44.7523C208.065 44.7523 206.4 44.4496 204.887 43.8442C203.373 43.2388 202.011 42.4821 200.952 41.2713C199.741 40.2118 198.984 38.8496 198.227 37.4875C197.622 35.974 197.319 34.3091 197.319 32.4929C197.319 30.6767 197.622 29.0118 198.227 27.4983C198.833 25.9848 199.741 24.774 200.952 23.7145C202.163 22.655 203.525 21.8983 205.038 21.2929C206.552 20.6875 208.217 20.3848 210.033 20.3848C211.849 20.3848 213.363 20.6875 215.027 21.2929C216.541 21.8983 217.903 22.655 219.114 23.8658C220.325 24.9253 221.081 26.2875 221.838 27.6496C222.292 29.1631 222.595 30.828 222.595 32.4929ZM200.8 32.4929C200.8 34.0064 201.103 35.3685 201.557 36.428C202.011 37.6388 202.768 38.5469 203.525 39.3037C204.281 40.0604 205.341 40.6658 206.4 41.1199C207.46 41.574 208.671 41.7253 209.881 41.7253C211.092 41.7253 212.303 41.574 213.363 41.1199C214.422 40.6658 215.481 40.0604 216.238 39.3037C216.995 38.5469 217.752 37.4875 218.206 36.428C218.963 35.3685 219.114 34.0064 219.114 32.4929C219.114 30.9794 218.811 29.6172 218.357 28.5577C217.903 27.4983 217.298 26.4388 216.39 25.6821C215.633 24.9253 214.573 24.3199 213.514 23.8658C212.454 23.4118 211.244 23.2604 210.033 23.2604C208.822 23.2604 207.611 23.4118 206.552 23.8658C205.492 24.3199 204.433 24.9253 203.676 25.6821C202.919 26.4388 202.163 27.4983 201.709 28.5577C201.103 29.7685 200.8 31.1307 200.8 32.4929Z" fill="#422568"/>
<path d="M230.313 20.8379L237.427 31.4325L244.691 20.8379H248.778V44.2973H245.448V30.9784V25.0757H245.145L238.032 35.519H236.67L229.556 25.0757H229.405V30.9784V44.2973H226.227V20.8379H230.313Z" fill="#9F66AA"/>
<path d="M253.622 20.8379H268.757V23.7136H257.103V30.6757H267.546V33.4001H257.103V41.4217H269.211V44.2973H253.622V20.8379Z" fill="#9F66AA"/>
<path d="M293.427 20.8398V41.4236H296L295.698 49.2939H292.973L292.519 44.1479H275.114L274.509 49.2939H271.784V41.575C272.087 41.4236 272.541 41.2723 272.995 41.1209C273.449 40.9696 273.752 40.6669 274.054 40.5155C274.66 40.0615 275.114 39.3047 275.568 38.3966C276.022 37.4885 276.325 36.5804 276.627 35.5209C276.93 34.4615 277.081 33.402 277.233 32.0398C277.384 30.829 277.384 29.4669 277.384 28.256V20.6885H293.427V20.8398ZM280.563 23.5642V27.9533C280.563 30.9804 280.26 33.856 279.654 36.1263C279.049 38.5479 278.141 40.2128 276.93 41.4236H289.946V23.5642H280.563Z" fill="#9F66AA"/>
</g>
<g clip-path="url(#clip1)">
<path d="M58.0003 16.7868L29.9544 0.513672L2.36816 16.5094L58.0003 48.8707V16.7868Z" fill="#6B449B"/>
<path d="M2 49.2402L29.954 65.5133L58 49.0137L2 17.1562V49.2402Z" fill="#DDB8D6"/>
<path d="M58 49.0137V31.5801L17.1724 7.91016L2 16.7864V34.4464L42 57.5137L58 49.0137Z" fill="#9F66AA"/>
<path d="M44.023 19.9307L29.4023 52.5694L40.8966 59.2265L58 49.0137V28.0672L44.023 19.9307Z" fill="#422568"/>
<path d="M28.759 23.5367C29.2188 24.3689 30.4142 24.3689 30.8739 23.5367C32.713 20.4855 36.8509 18.174 40.8969 18.8212C46.3222 19.7458 50.3682 26.2181 48.9889 31.9506C48.3452 34.8169 46.5981 37.2209 44.759 39.44C40.713 44.3404 35.6555 48.6861 30.5061 52.3845C30.0463 52.6619 29.4946 52.6619 29.1268 52.3845C23.9774 48.7785 18.9199 44.4329 14.8739 39.44C13.0348 37.2209 11.2877 34.8169 10.644 31.9506C9.26473 26.2181 13.3107 19.7458 18.736 18.8212C22.782 18.174 26.8279 20.4855 28.759 23.5367Z" fill="white"/>
<path d="M28.3909 44.9874C28.5748 45.3572 29.0346 45.3572 29.2185 45.0798L28.207 44.4326L28.3909 44.9874Z" fill="#DDB8D6"/>
<path d="M27.6557 43.2298L29.5867 44.4318L30.1385 43.1373L26.8281 41.2881L27.6557 43.2298Z" fill="#DDB8D6"/>
<path d="M15.7935 36.3881C15.8854 36.4805 15.8854 36.573 15.9774 36.573C16.0694 36.6655 16.2533 36.7579 16.3452 36.7579H16.4372H19.1038L13.7705 33.6143C14.4142 34.6313 15.0579 35.5559 15.7935 36.3881Z" fill="#DDB8D6"/>
<path d="M26.2768 39.9941L30.4147 42.3981L30.9665 41.1036L25.4492 37.96L26.2768 39.9941Z" fill="#DDB8D6"/>
<path d="M14.2306 32.875H14.1387L20.8513 36.7584H22.1387C22.3226 36.7584 22.5065 36.6659 22.5984 36.481L22.6904 36.2961L16.7134 32.875H14.2306Z" fill="#DDB8D6"/>
<path d="M20.0233 32.597C19.9314 32.782 19.7475 32.8744 19.5636 32.8744H18.3682L22.9659 35.5558L23.2417 34.9086C23.4256 34.4462 23.9774 34.4462 24.1613 34.9086L24.8969 36.6653L31.2417 40.3637L31.7935 39.1618L20.1153 32.4121L20.0233 32.597Z" fill="#DDB8D6"/>
<path d="M34.4606 42.2128L34.5525 42.3978C34.6445 42.6751 35.0123 42.7676 35.2881 42.6751C35.3801 42.5827 35.472 42.5827 35.472 42.3978L35.8399 41.4732L33.541 40.1787L34.4606 42.2128Z" fill="#DDB8D6"/>
<path d="M28.3916 34.8161L28.2996 34.6311L20.9433 30.3779L20.3916 31.5799L32.1617 38.422C32.4376 38.2371 32.8054 38.2371 32.9893 38.6069L33.1732 38.9768L36.2996 40.7335L36.8514 39.5316L29.2192 35.0934C28.8514 35.1859 28.4836 35.0934 28.3916 34.8161Z" fill="#DDB8D6"/>
<path d="M29.4951 34.354L37.0353 38.6997L37.5871 37.4977L30.0468 33.0596L29.4951 34.354Z" fill="#DDB8D6"/>
<path d="M26.9199 31.3025L21.7705 28.3438L21.2188 29.5457L27.8394 33.3366L26.9199 31.3025Z" fill="#DDB8D6"/>
<path d="M30.3223 32.3202L38.1384 36.8507C38.1384 36.8507 38.1384 36.8507 38.2303 36.8507H40.805L30.874 31.1182L30.3223 32.3202Z" fill="#DDB8D6"/>
<path d="M25.6329 27.9739L22.5984 26.3096L22.1387 27.5116L26.4605 30.008L25.6329 27.9739Z" fill="#DDB8D6"/>
<path d="M35.6553 32.875L42.4599 36.7584H43.1955C43.3794 36.7584 43.4714 36.6659 43.5633 36.5734C43.6553 36.3885 43.8392 36.296 43.9311 36.1111L38.3219 32.875H35.6553Z" fill="#DDB8D6"/>
<path d="M33.8169 30.286L31.702 29.084L31.2422 30.286L34.6445 32.2277L33.8169 30.286Z" fill="#DDB8D6"/>
<path d="M24.2532 24.738C24.1612 24.4606 23.8854 24.3682 23.6095 24.3682C23.4256 24.3682 23.3336 24.4606 23.2417 24.6455L22.9658 25.4777L25.0808 26.7721L24.2532 24.738Z" fill="#DDB8D6"/>
<path d="M39.9775 32.875L44.4833 35.4639C44.7591 35.0941 45.035 34.7242 45.3109 34.3544L42.6442 32.875H39.9775Z" fill="#DDB8D6"/>
<path d="M32.9889 28.251C32.805 27.7887 32.2532 27.7887 32.0693 28.251L33.2647 28.9907L32.9889 28.251Z" fill="#DDB8D6"/>
<path d="M45.4023 32.875H44.2988L45.7701 33.7071C45.7701 33.7071 45.7701 33.7071 45.7701 33.6147C46.046 33.3373 45.7701 32.875 45.4023 32.875Z" fill="#DDB8D6"/>
</g>
<defs>
<clipPath id="clip0">
<rect width="224" height="28.9081" fill="white" transform="translate(72 20.3848)"/>
</clipPath>
<clipPath id="clip1">
<rect width="56" height="65" fill="white" transform="translate(2 0.513672)"/>
</clipPath>
</defs>
</svg>
