<svg width="50" height="32" viewBox="0 0 50 32" fill="none" xmlns="http://www.w3.org/2000/svg">
<path d="M23 9.5C23 8.67157 23.6716 8 24.5 8C25.3284 8 26 8.67157 26 9.5V26H23V9.5Z" fill="#0094D9"/>
<path d="M17 14.5C17 13.6716 17.6716 13 18.5 13C19.3284 13 20 13.6716 20 14.5V26H17V14.5Z" fill="#0094D9"/>
<path d="M11 13.5C11 12.6716 11.6716 12 12.5 12C13.3284 12 14 12.6716 14 13.5V26H11V13.5Z" fill="#0094D9"/>
<path d="M5 20.5C5 19.6716 5.67157 19 6.5 19C7.32843 19 8 19.6716 8 20.5V26H5V20.5Z" fill="#0094D9"/>
<rect x="21" y="2" width="28" height="20" rx="10" fill="#0094D9" stroke="white" stroke-width="2"/>
<path d="M31.1267 7.606C31.7147 7.606 32.256 7.746 32.7507 8.026C33.2547 8.29667 33.6514 8.67933 33.9407 9.174C34.2394 9.65933 34.3887 10.2053 34.3887 10.812C34.3887 11.176 34.3327 11.5167 34.2207 11.834C34.118 12.142 33.9874 12.4267 33.8287 12.688C33.67 12.94 33.432 13.29 33.1147 13.738L30.8187 17H29.0547L31.2807 13.85C31.1594 13.878 31.024 13.892 30.8747 13.892C30.352 13.892 29.8574 13.7567 29.3907 13.486C28.924 13.2153 28.5507 12.8467 28.2707 12.38C27.9907 11.904 27.8507 11.3767 27.8507 10.798C27.8507 10.2007 28 9.65933 28.2987 9.174C28.5974 8.68867 28.994 8.306 29.4887 8.026C29.9927 7.746 30.5387 7.606 31.1267 7.606ZM31.1267 12.632C31.6307 12.632 32.0554 12.4547 32.4007 12.1C32.746 11.7453 32.9187 11.3113 32.9187 10.798C32.9187 10.2753 32.746 9.84133 32.4007 9.496C32.0554 9.14133 31.6307 8.964 31.1267 8.964C30.6134 8.964 30.1794 9.14133 29.8247 9.496C29.4794 9.84133 29.3067 10.2753 29.3067 10.798C29.3067 11.3207 29.4794 11.7593 29.8247 12.114C30.1794 12.4593 30.6134 12.632 31.1267 12.632ZM38.906 7.606C39.494 7.606 40.0353 7.746 40.53 8.026C41.034 8.29667 41.4307 8.67933 41.72 9.174C42.0187 9.65933 42.168 10.2053 42.168 10.812C42.168 11.176 42.112 11.5167 42 11.834C41.8973 12.142 41.7667 12.4267 41.608 12.688C41.4493 12.94 41.2113 13.29 40.894 13.738L38.598 17H36.834L39.06 13.85C38.9387 13.878 38.8033 13.892 38.654 13.892C38.1313 13.892 37.6367 13.7567 37.17 13.486C36.7033 13.2153 36.33 12.8467 36.05 12.38C35.77 11.904 35.63 11.3767 35.63 10.798C35.63 10.2007 35.7793 9.65933 36.078 9.174C36.3767 8.68867 36.7733 8.306 37.268 8.026C37.772 7.746 38.318 7.606 38.906 7.606ZM38.906 12.632C39.41 12.632 39.8347 12.4547 40.18 12.1C40.5253 11.7453 40.698 11.3113 40.698 10.798C40.698 10.2753 40.5253 9.84133 40.18 9.496C39.8347 9.14133 39.41 8.964 38.906 8.964C38.3927 8.964 37.9587 9.14133 37.604 9.496C37.2587 9.84133 37.086 10.2753 37.086 10.798C37.086 11.3207 37.2587 11.7593 37.604 12.114C37.9587 12.4593 38.3927 12.632 38.906 12.632Z" fill="#F2F2F2"/>
</svg>
