<svg width="263" height="65" viewBox="0 0 263 65" fill="none" xmlns="http://www.w3.org/2000/svg">
    <path fill-rule="evenodd" clip-rule="evenodd"
          d="M172.646 11.3148V8.36694H169.679V11.3148C168.87 11.1808 168.061 11.1808 167.117 11.1808C165.768 11.1808 164.554 11.4487 163.61 11.8507C162.531 12.2527 161.722 12.7887 161.048 13.4586C160.239 14.2626 159.834 15.0665 159.43 16.0044C159.025 16.9424 158.89 18.0143 158.89 19.0862C158.89 20.1582 159.025 21.2301 159.43 22.168C159.834 23.106 160.374 24.0439 161.048 24.7139C161.722 25.3838 162.666 25.9198 163.61 26.3218C164.689 26.7237 165.768 26.9917 167.117 26.9917C168.061 26.9917 168.87 26.9917 169.679 26.8577V29.6715H172.646V26.8577C173.455 26.9917 174.264 26.9917 175.208 26.9917C176.557 26.9917 177.635 26.7237 178.714 26.3218C179.793 25.9198 180.602 25.3838 181.277 24.7139C182.086 23.9099 182.49 23.106 182.895 22.168C183.299 21.2301 183.434 20.1582 183.434 19.0862C183.434 18.0143 183.299 16.9424 182.895 16.0044C182.49 14.9325 181.951 14.1286 181.277 13.4586C180.602 12.7887 179.793 12.2527 178.714 11.8507C177.635 11.4487 176.557 11.1808 175.208 11.1808C174.264 11.1808 173.455 11.1808 172.646 11.3148ZM168.33 13.5926C168.87 13.5926 169.274 13.5926 169.679 13.7266V24.1779C169.39 24.1779 169.139 24.2164 168.907 24.2521C168.706 24.283 168.518 24.3119 168.33 24.3119H166.982C165.363 24.3119 164.15 23.9099 163.206 22.972C162.262 22.034 161.857 20.6941 161.857 18.9522C161.857 17.2104 162.262 15.8705 163.206 14.9325C164.15 13.9946 165.363 13.5926 166.982 13.5926H168.33ZM173.994 24.3119C173.455 24.3119 173.05 24.3119 172.646 24.1779V13.7266C172.935 13.7266 173.185 13.6881 173.417 13.6524C173.619 13.6215 173.806 13.5926 173.994 13.5926H175.343C176.961 13.5926 178.175 13.9946 179.119 14.9325C180.063 15.8705 180.467 17.2104 180.467 18.9522C180.467 20.6941 180.063 22.034 179.119 22.972C178.175 23.9099 176.961 24.3119 175.343 24.3119H173.994ZM132.19 26.9914V8.76863V8.50065H117.895V15.2002C117.895 16.2721 117.895 17.4781 117.76 18.55C117.625 19.7559 117.49 20.6938 117.221 21.6318C116.951 22.5697 116.681 23.3737 116.277 24.1776C115.872 24.9816 115.468 25.6515 114.928 26.0535C114.828 26.1034 114.727 26.1718 114.62 26.245C114.439 26.3684 114.238 26.5053 113.984 26.5895L113.984 26.5895C113.579 26.7235 113.175 26.8575 112.905 26.9914V33.959H115.333L115.872 29.4033H131.381L131.785 33.959H134.213L134.482 26.9914H132.19ZM120.727 15.2002V11.3145H129.088V27.1254H117.49C118.569 26.0535 119.378 24.5796 119.918 22.4357C120.457 20.4259 120.727 17.88 120.727 15.2002ZM75.6823 8.76831L82.0205 18.1477L88.4937 8.76831H92.1348V29.5369H89.168V17.7457V12.5201H88.8983L82.56 21.7654H81.3463L75.008 12.5201H74.7383V17.7457V29.5369H71.9062V8.76831H75.6823ZM96.4526 8.76903H109.803V11.3149H99.4195V17.4785H108.725V19.8903H99.4195V26.9918H110.208V29.5377H96.4526V8.76903ZM140.414 8.76903V25.3839H140.549L152.956 8.76903H155.788V29.5377H152.821V13.4587H152.686L140.549 29.5377H137.312V8.76903H140.414ZM204.066 8.76903V29.5377H200.964V11.1809H192.738V16.0046C192.738 20.6942 192.198 24.178 191.119 26.4559C190.041 28.5997 188.287 29.8056 186.13 29.8056C185.59 29.8056 185.186 29.8056 184.781 29.6716C184.377 29.6716 183.972 29.5377 183.567 29.2697L183.972 26.8578C184.107 26.9248 184.275 26.9583 184.444 26.9918C184.613 27.0253 184.781 27.0588 184.916 27.1258H185.86C187.074 27.1258 187.883 26.4559 188.557 25.1159C189.501 23.2401 189.906 19.7563 189.906 14.6646V8.76903H204.066ZM221.87 8.76903H208.384V29.5377H222.274V26.9918H211.486V19.8903H220.791V17.4785H211.486V11.3149H221.87V8.76903ZM228.478 8.76892V16.4064H232.928L236.3 11.0468C236.839 10.2428 237.513 9.57286 238.188 9.0369C238.862 8.63493 239.671 8.36694 240.615 8.36694C241.424 8.36694 242.098 8.50092 242.773 8.6349L242.773 8.63493L242.368 11.1808C241.964 11.0468 241.694 11.0468 241.289 11.0468C240.75 11.0468 240.21 11.1808 239.806 11.3148C239.401 11.5827 238.997 11.9847 238.592 12.6547L235.49 17.3444L243.312 29.2696H239.806L233.063 18.6843H228.613V29.2696H225.376V8.76892H228.478ZM258.55 11.4482C259.494 11.7162 260.438 12.2521 261.517 13.0561L263 10.9122C261.921 10.1083 260.707 9.5723 259.629 9.17033C258.55 8.76835 257.201 8.63436 255.583 8.63436C254.099 8.63436 252.616 8.90234 251.267 9.43831C249.919 9.97427 248.705 10.6442 247.626 11.5822C246.547 12.5201 245.738 13.592 245.199 14.9319C244.525 16.2719 244.255 17.7458 244.255 19.3537C244.255 21.2295 244.525 22.8374 245.199 24.1773C245.738 25.5172 246.547 26.5892 247.626 27.5271C248.705 28.465 249.784 29.135 251.133 29.537C252.481 29.9389 253.83 30.2069 255.178 30.2069C256.797 30.2069 258.145 30.0729 259.359 29.805C260.573 29.537 261.651 29.001 262.865 28.1971L261.921 25.5172C261.382 25.9192 260.842 26.1872 260.303 26.4551L260.303 26.4552C259.898 26.7232 259.359 26.9911 258.819 27.1251L258.819 27.1252C258.28 27.2591 257.741 27.3931 257.201 27.3931C256.662 27.5271 256.122 27.5271 255.448 27.5271C254.234 27.5271 253.155 27.3931 252.211 26.9911C251.267 26.5892 250.323 26.0532 249.649 25.3833C248.975 24.7133 248.301 23.9093 247.896 22.8374C247.491 21.8995 247.222 20.6936 247.222 19.3537C247.222 18.1477 247.357 17.0758 247.761 16.0039C248.166 14.9319 248.705 13.994 249.379 13.324C250.054 12.5201 250.863 11.9841 251.942 11.5822C252.886 11.1802 254.099 10.9122 255.313 10.9122C256.527 10.9122 257.606 11.0462 258.55 11.4482Z"
          fill="#26247B"/>
    <path fill-rule="evenodd" clip-rule="evenodd"
          d="M98.4741 40.658H88.3598V56.3349H98.8786V54.459H90.6524V49.0994H97.6649V47.2235H90.6524V42.5338H98.4741V40.658ZM84.9874 56.3352V40.6583H82.6948V47.2238H74.1988V40.6583H71.9062V56.3352H74.1988V48.9657H82.6948V56.3352H84.9874ZM109.936 40.658L116.679 56.3349H114.252L112.229 51.6452H104.947L102.924 56.3349H100.496L107.239 40.658H109.936ZM105.756 49.7694H111.555L108.723 42.9358H108.453L105.756 49.7694ZM128.413 56.3349V54.459H120.996V40.658H118.703V56.3349H128.413ZM127.873 40.658H139.606V42.5338H134.886V56.3349H132.458V42.5338H127.738V40.658H127.873ZM154.711 56.3349V40.658H152.418V47.2235H143.922V40.658H141.63V56.3349H143.922V48.9654H152.418V56.3349H154.711ZM170.625 43.8737C169.815 43.3378 169.141 42.9358 168.332 42.6678C167.658 42.3998 166.849 42.2658 165.905 42.2658C164.961 42.2658 164.151 42.3998 163.342 42.8018C162.533 43.0698 161.859 43.6058 161.319 44.1417C160.78 44.6777 160.375 45.3476 160.106 46.1516C159.836 46.9555 159.701 47.7595 159.701 48.6974C159.701 49.7694 159.836 50.5733 160.241 51.3772C160.51 52.1812 161.05 52.8511 161.589 53.2531C162.129 53.7891 162.803 54.1911 163.612 54.459C164.421 54.727 165.23 54.861 166.039 54.861C166.579 54.861 166.983 54.861 167.388 54.727C167.793 54.727 168.197 54.593 168.602 54.459C169.006 54.325 169.411 54.1911 169.815 53.9231C170.22 53.7891 170.625 53.5211 171.029 53.2531L171.703 55.263C170.894 55.7989 169.95 56.3349 169.006 56.4689C168.062 56.7369 166.983 56.8709 165.77 56.8709C164.691 56.8709 163.747 56.7369 162.668 56.3349C161.724 56.0669 160.78 55.531 159.971 54.861C159.162 54.1911 158.622 53.3871 158.083 52.3152C157.678 51.2433 157.409 50.0373 157.409 48.6974C157.409 47.4915 157.678 46.4196 158.083 45.3476C158.487 44.2757 159.162 43.4718 159.971 42.8018C160.78 42.1319 161.589 41.5959 162.668 41.1939C163.747 40.7919 164.826 40.658 165.905 40.658C167.118 40.658 168.062 40.7919 169.006 41.0599C169.815 41.3279 170.759 41.7299 171.569 42.3998L170.625 43.8737ZM189.098 56.3349L182.355 40.658H179.658L172.915 56.3349H175.342L177.365 51.6452H184.647L186.67 56.3349H189.098ZM183.973 49.7694H178.174L180.871 42.9358H181.141L183.973 49.7694ZM197.597 40.658C198.406 40.658 199.08 40.7919 199.754 40.9259C200.428 41.1939 200.968 41.4619 201.507 41.8639C202.047 42.2658 202.316 42.6678 202.586 43.2038C202.856 43.7397 202.991 44.4097 202.991 45.0797C202.991 46.0176 202.721 46.8215 202.182 47.6255C201.642 48.4294 200.698 48.9654 199.619 49.2334L204.204 56.3349H201.507L197.327 49.6354H193.551V56.3349H191.258V40.658H197.597ZM193.416 47.7595H197.192C198.271 47.7595 199.08 47.4915 199.754 47.0895C200.428 46.6876 200.698 46.0176 200.698 45.0797C200.698 44.2757 200.428 43.6058 199.754 43.2038C199.08 42.8018 198.271 42.5338 197.192 42.5338H193.416V47.7595ZM216.341 40.658H206.226V56.3349H216.745V54.459H208.519V49.0994H215.532V47.2235H208.519V42.5338H216.341V40.658Z"
          fill="#4FBBEB"/>
    <path d="M57.646 48.4844V31.0891L17.1013 7.77393L2 16.5171V33.9124L42.5447 57.2276L57.646 48.4844Z" fill="#4FBBEB"/>
    <path d="M2 33.9121V48.4841L29.823 64.5133L42.5447 57.2273L2 33.9121Z" fill="#8DD7F7"/>
    <path d="M29.8223 0.486816L17.1006 7.77281L57.6453 31.088V16.516L29.8223 0.486816Z" fill="#0094D9"/>
    <path d="M35.4056 14.6032L35.2225 18.9748L27.1685 14.33L10.0537 45.933L36.1378 60.8692L57.6457 48.4831V31.9074V27.4447L35.4056 14.6032Z"
          fill="#26247B"/>
    <path d="M26.9853 39.8309C26.7107 40.1952 26.3446 40.4684 25.887 40.7417C25.1548 41.2881 24.2396 41.5613 23.4159 41.9256C20.3956 43.1096 17.3754 44.3847 14.3551 45.5686C11.7925 46.5705 9.5959 47.4812 8.86372 43.8382C8.68067 42.5632 8.86372 41.3792 9.13829 40.1952C11.3348 31.1788 16.0025 22.0713 22.8667 15.6961C26.8937 11.962 28.2666 14.8764 28.5412 19.248C28.7242 23.3464 28.8157 27.4447 28.7242 31.5431C28.7242 34.3664 28.9988 37.6451 26.9853 39.8309Z"
          fill="white"/>
    <path d="M33.0248 40.1046C33.2994 40.4689 33.6655 40.7421 34.1231 41.0153C34.8553 41.5618 35.7705 41.835 36.5942 42.1993C39.6145 43.3833 42.6348 44.6583 45.655 45.8423C48.2177 46.8441 50.4142 47.7549 51.1464 44.1119C51.3294 42.8368 51.1464 41.6529 50.8718 40.4689C48.5837 31.4525 44.0076 22.345 37.1434 15.9697C33.1164 12.2357 31.7435 15.1501 31.469 19.5217C31.2859 23.62 31.1944 27.7184 31.2859 31.8168C31.2859 34.7312 31.1029 37.9188 33.0248 40.1046Z"
          fill="white"/>
    <path d="M35.316 34.7324C35.9567 35.0056 36.6889 35.0056 37.4211 35.0056C37.6956 35.0056 38.0617 35.0967 38.3363 35.0967L34.2178 32.7288C34.4923 33.6395 34.6754 34.3681 35.316 34.7324Z"
          fill="#ABE0F9"/>
    <path d="M34.127 30.4508C34.127 30.8151 34.2185 31.2705 34.2185 31.817L41.1742 35.8242C41.8149 36.0064 42.4555 36.2796 43.0962 36.5528C43.7369 36.8261 45.3843 37.7368 45.9334 37.0993L34.127 30.2687C34.127 30.2687 34.127 30.3598 34.127 30.4508Z"
          fill="#ABE0F9"/>
    <path d="M34.0359 29.1764L46.2084 36.1892C46.2084 35.6428 46.0254 35.0052 45.8423 34.4588L33.9443 27.6282C33.9443 28.0835 34.0359 28.63 34.0359 29.1764Z"
          fill="#ABE0F9"/>
    <path d="M33.7627 25.3512C33.7627 25.8066 33.8542 26.1709 33.8542 26.6263L45.2946 33.1837C45.1115 32.8194 44.9285 32.364 44.837 31.9997C44.7454 31.7265 44.5624 31.4533 44.4709 31.18L33.7627 24.9869C33.7627 25.1691 33.7627 25.2602 33.7627 25.3512Z"
          fill="#ABE0F9"/>
    <path d="M33.6697 24.076L43.9202 29.9048C43.5541 29.1762 43.188 28.4476 42.822 27.8101L33.5781 22.5277C33.5781 22.9831 33.6697 23.5295 33.6697 24.076Z"
          fill="#ABE0F9"/>
    <path d="M33.7612 20.1597C33.6697 20.615 33.6696 21.0704 33.5781 21.6169L41.9982 26.4438C41.5406 25.6242 40.9915 24.8045 40.5339 24.0759L33.7612 20.1597Z"
          fill="#ABE0F9"/>
    <path d="M34.0352 19.3399L39.3435 22.3454C38.7944 21.6168 38.1537 20.9793 37.6046 20.2507C37.4215 19.9775 37.1469 19.7042 36.8724 19.431L35.1334 18.4292C34.6758 18.4292 34.3097 18.7024 34.0352 19.3399Z"
          fill="#ABE0F9"/>
    <path d="M16.7347 36.4608C16.8262 36.4608 16.9177 36.3698 16.9177 36.3698L13.8988 34.6401C13.8073 35.0953 13.7158 35.5505 13.7158 36.0056L15.454 37.007C16.0029 36.825 16.4603 36.5519 16.7347 36.4608Z"
          fill="#ABE0F9"/>
    <path d="M19.6645 35.4599L14.8138 32.6366C14.6307 33.0009 14.5392 33.3652 14.3562 33.7295C14.3562 33.8206 14.3562 33.8206 14.2646 33.9116L17.9256 36.0064C18.4747 35.8242 19.1154 35.6421 19.6645 35.4599Z"
          fill="#ABE0F9"/>
    <path d="M22.3179 35.0051C22.5925 35.0051 22.7755 35.0051 23.0501 35.0051L15.5452 30.7246C15.3622 31.0889 15.1791 31.5443 14.9961 31.9086L20.762 35.1873C21.3112 35.0962 21.8603 35.0051 22.3179 35.0051Z"
          fill="#ABE0F9"/>
    <path d="M24.5165 34.7318C24.8826 34.5496 25.1572 34.1853 25.2487 33.821L16.554 28.7208C16.371 29.0851 16.1879 29.5405 16.0049 29.9048L24.425 34.7318C24.425 34.7318 24.425 34.7318 24.5165 34.7318Z"
          fill="#ABE0F9"/>
    <path d="M25.6143 31.543L17.4688 26.8982C17.2857 27.2625 17.0112 27.6268 16.8281 28.0822L25.4313 33.0002C25.6143 32.4538 25.6143 31.9984 25.6143 31.543Z"
          fill="#ABE0F9"/>
    <path d="M25.705 30.4502C25.705 29.9948 25.7965 29.6305 25.7965 29.1752L18.5662 25.0768C18.2916 25.4411 18.1086 25.8054 17.834 26.1697L25.6134 30.6324C25.705 30.5413 25.705 30.4502 25.705 30.4502Z"
          fill="#ABE0F9"/>
    <path d="M25.9782 26.8075L19.8462 23.2556C19.6631 23.4378 19.5716 23.6199 19.3886 23.8021C19.297 23.9842 19.2055 24.1664 19.0225 24.3485L25.8867 28.2647C25.9782 27.7183 25.9782 27.2629 25.9782 26.8075Z"
          fill="#ABE0F9"/>
    <path d="M26.0719 25.3508C26.0719 25.0775 26.0719 24.7132 26.1634 24.44L21.2212 21.6167C20.9466 21.981 20.672 22.2542 20.3975 22.6185L26.1634 25.8972C26.0719 25.7151 26.0719 25.5329 26.0719 25.3508Z"
          fill="#ABE0F9"/>
    <path d="M26.2542 21.9817L22.5932 19.887C22.5017 19.978 22.4102 20.0691 22.3187 20.2513C22.1356 20.5245 21.9526 20.7066 21.7695 20.9799L26.2542 23.53C26.2542 22.9835 26.2542 22.5281 26.2542 21.9817Z"
          fill="#ABE0F9"/>
    <path d="M26.0697 20.1586C25.9782 19.7945 25.8867 19.5214 25.7952 19.3393L24.3315 18.52C23.9656 18.6111 23.5082 18.9752 23.0508 19.3393L26.0697 21.069C26.1612 20.7048 26.1612 20.4317 26.0697 20.1586Z"
          fill="#ABE0F9"/>
</svg>
