<svg width="468" height="309" viewBox="0 0 468 309" fill="none" xmlns="http://www.w3.org/2000/svg">
<path opacity="0.5" fill-rule="evenodd" clip-rule="evenodd" d="M447.686 159.659C445.428 223.004 375.6 271.989 288.326 291.984C198.871 312.479 94.2972 305.824 38.738 253.354C-17.0914 200.628 5.09039 129.793 60.5785 76.896C116.58 23.5104 207.222 -13.8294 298.532 5.69251C393.099 25.9106 450.117 91.4621 447.686 159.659Z" fill="#EEDFEB"/>
<g clip-path="url(#clip0)">
<path d="M342.78 137.927C349.528 189.292 313.345 236.396 261.971 243.142C260.099 243.387 258.232 243.575 256.372 243.708L243.221 143.495L341.532 130.589C342.037 132.991 342.453 135.437 342.78 137.927Z" fill="#0068A8"/>
<path d="M302.448 228.192C304.903 220.484 306.498 211.84 303.13 207.936C296.354 200.085 269.339 225.519 269.339 225.519C269.339 225.519 277.682 214.945 277.213 209.143C276.857 204.738 260.3 210.169 252.342 213.041" stroke="white" stroke-width="2" stroke-miterlimit="10"/>
<path d="M248.161 179.302C248.161 179.302 284.985 196.628 291.027 187.861C297.069 179.095 272.703 151.874 275.012 149.757C277.322 147.641 286.125 152.195 288.111 149.647C289.79 147.492 288.916 142.186 287.714 137.65" stroke="white" stroke-width="2" stroke-miterlimit="10"/>
<path d="M353.566 84.1968C350.303 84.4358 338.219 105.01 338.219 105.01L314.054 112.397" stroke="#170C2C" stroke-width="3" stroke-miterlimit="10"/>
<path d="M343.463 145.364C334.58 145.364 311.867 146.002 310.512 151.99C308.811 159.448 330.317 165.521 330.34 167.066C330.364 168.611 305.207 170.299 305.245 176.876C305.266 180.832 320.487 188.628 332.609 194.208" stroke="white" stroke-width="2" stroke-miterlimit="10"/>
<path d="M453.339 308.125H401.821C401.821 308.125 408.849 299.831 413.943 298.886C413.943 298.886 386.856 255.521 382.141 237.043C378.994 224.714 380.21 212.717 380.21 212.717L376.384 234.661L384.433 308.128H330.856C330.856 308.128 340.663 301.152 345.378 300.21C345.378 300.21 338.286 245.279 339.418 231.699C340.549 218.119 341.185 160.874 361.451 140.769C375.839 126.484 398.263 126.484 413.357 148.612C427.147 168.827 422.397 228.932 422.397 228.932L453.339 308.125Z" fill="#030207"/>
<path d="M381.808 172.518L379.263 236.44" stroke="white" stroke-width="3" stroke-miterlimit="10"/>
<path d="M12.5293 308.125H59.1654C59.1654 308.125 53.6745 299.831 48.9797 298.886C48.9797 298.886 62.4605 251.564 64.6592 232.708C66.3739 218.003 66.9192 191.377 66.9192 191.377L72.168 231.163L62.6151 308.128H112.021C112.021 308.128 102.982 301.152 98.6339 300.21C98.6339 300.21 106.151 244.352 106.151 226.588C106.151 212.974 105.431 160.876 86.7482 140.772C73.4831 126.487 51.2571 126.064 41.2289 144.562C29.7485 165.719 28.757 227.775 28.757 227.775L12.5293 308.125Z" fill="#030207"/>
<path d="M66.5059 172.518L68.8533 236.44" stroke="white" stroke-width="3" stroke-miterlimit="10"/>
<path d="M99.3191 93.7796L78.5395 117.371C72.967 123.697 62.6034 121.365 60.2705 113.272L52.511 86.2988C52.0229 84.6073 51.961 82.8214 52.3308 81.1002C52.7006 79.3791 53.4906 77.7761 54.6304 76.4343C55.7702 75.0924 57.2243 74.0533 58.8632 73.4097C60.5022 72.766 62.2749 72.5378 64.0235 72.7453L92.5773 76.1271C101.11 77.1387 105 87.325 99.3191 93.7796Z" fill="#6B449B"/>
<path d="M77.0332 77.7187L83.361 59.3927C83.361 59.3927 77.5289 53.3171 80.5645 48.6759C83.6001 44.0347 88.0062 48.0928 88.0062 48.0928C88.0062 48.0928 92.8935 41.9706 100.592 44.0376C108.29 46.1046 110.576 51.6875 109.471 57.9263C107.555 68.7831 100.907 70.1358 89.8171 66.34L85.1981 78.2522" fill="#FCCE44"/>
<path d="M84.6055 46.478C84.6055 46.478 85.0779 37.761 96.2696 37.5832C107.461 37.4054 108.47 41.5597 112.938 40.2653C117.405 38.9709 118.98 52.434 106.735 52.0055C94.4908 51.5769 95.0216 50.8976 95.0216 50.8976C95.0216 50.8976 93.9543 56.2881 90.9129 55.4077C87.8714 54.5273 87.7956 48.7519 87.7956 48.7519" fill="#030207"/>
<path d="M106.024 58.5708L106.124 63.317" stroke="#170C2C" stroke-width="3" stroke-miterlimit="10"/>
<path d="M102.684 60.1045C103.398 60.1045 103.976 59.5263 103.976 58.813C103.976 58.0997 103.398 57.5215 102.684 57.5215C101.971 57.5215 101.393 58.0997 101.393 58.813C101.393 59.5263 101.971 60.1045 102.684 60.1045Z" fill="#030207"/>
<path d="M108.138 60.2793C108.851 60.2793 109.429 59.7011 109.429 58.9878C109.429 58.2745 108.851 57.6963 108.138 57.6963C107.424 57.6963 106.846 58.2745 106.846 58.9878C106.846 59.7011 107.424 60.2793 108.138 60.2793Z" fill="#030207"/>
<path d="M102.524 99.0651C102.524 99.0651 135.222 103.187 142.964 97.7065" stroke="#170C2C" stroke-width="3" stroke-miterlimit="10"/>
<path d="M243.565 108.593L135.99 121.365C134.284 78.6547 161.803 40.5394 201.907 28.1345C205.926 26.8882 210.025 25.9142 214.175 25.2192C215.666 24.9704 217.17 24.7556 218.686 24.5749C223.607 23.9888 228.567 23.7939 233.52 23.9918L240.842 85.6487L241.895 94.523L243.565 108.593Z" fill="#C64F4B"/>
<path d="M332.886 123.735L254.231 127.196L250.481 42.0674C293.123 46.9214 327.576 80.5326 332.886 123.735Z" fill="#F7C9D6"/>
<path d="M205.895 144.907L186.11 244.029C138.418 231.548 108.158 183.9 117.93 134.945C118.42 132.49 119.003 130.077 119.68 127.706L205.895 144.907Z" fill="#FCCE44"/>
<path d="M100.148 79.174C103.995 78.4043 134.666 79.8329 134.666 79.8329C134.666 79.8329 152.474 55.2156 160.28 50.93C168.086 46.6445 174.35 49.3907 175.12 50.93C175.889 52.4693 173.691 65.5505 171.822 65.9878C169.952 66.4251 170.504 54.513 170.504 54.513C170.504 54.513 169.629 68.7341 167.754 68.7341C165.879 68.7341 165.447 56.5333 165.447 56.5333C165.447 56.5333 164.348 68.7341 162.823 68.6233C161.298 68.5125 160.624 59.612 160.624 59.612" stroke="#170C2C" stroke-width="3" stroke-miterlimit="10"/>
<path d="M362.446 108.893C362.446 108.893 360.274 115.472 354.226 119.945C348.058 124.504 336.756 129.781 307.701 129.355C296.01 129.183 290.056 128.009 290.056 125.813C290.056 123.618 291.881 111.167 293.438 111.167C294.995 111.167 295.911 122.775 295.911 122.775C295.911 122.775 296.663 108.898 298.293 108.828C299.924 108.758 300.845 122.554 300.845 122.554C300.845 122.554 301.207 112.423 302.91 112.423C304.612 112.423 305.744 125.221 305.744 125.221" stroke="#170C2C" stroke-width="3" stroke-miterlimit="10"/>
<path d="M356.2 53.1016C356.2 53.1016 347.143 62.5152 347.988 71.4683C348.834 80.4214 360.761 85.392 360.761 85.392L384.864 68.5967L356.2 53.1016Z" fill="black"/>
<path d="M415.849 110.318C415.955 105.715 415.153 101.136 413.488 96.8424C411.824 92.549 409.33 88.6253 406.149 85.2955C402.968 81.9657 399.162 79.295 394.948 77.4357C390.735 75.5764 386.196 74.5651 381.592 74.4594C376.987 74.3538 372.407 75.1558 368.113 76.8199C363.818 78.4839 359.894 80.9772 356.563 84.1576C353.233 87.338 350.561 91.1431 348.702 95.3556C346.842 99.5681 345.83 104.106 345.725 108.709L415.849 110.318Z" fill="#9F66AA"/>
<path d="M382.166 80.5119L379.032 58.0841C379.032 58.0841 385.473 53.1629 383.266 48.303C381.058 43.4431 376.267 46.6617 376.267 46.6617C376.267 46.6617 372.52 40.1313 364.895 40.9534C357.269 41.7756 354.724 51.1776 356.363 57.0637C358.783 65.7573 363.326 69.3461 371.817 65.7427L372.946 78.1767" fill="#FCCE44"/>
<path d="M362.116 59.7251L361.369 63.9728" stroke="#170C2C" stroke-width="3" stroke-miterlimit="10"/>
<path d="M381.303 74.3374C372.777 73.3724 372.619 46.1633 372.619 46.1633C365.393 52.3177 355.972 51.8337 355.972 51.8337C355.972 51.8337 356.004 38.7904 369.969 37.875C383.934 36.9596 388.523 45.1634 388.523 45.1634C388.523 45.1634 403.798 46.0876 406.116 57.8802C408.434 69.6728 397.187 79.7774 397.187 79.7774C397.187 79.7774 388.077 75.107 381.303 74.3374Z" fill="black"/>
<path d="M360.078 61.3099C360.602 61.0893 360.754 60.2632 360.417 59.4649C360.081 58.6666 359.384 58.1983 358.86 58.4189C358.336 58.6395 358.184 59.4655 358.52 60.2638C358.856 61.0622 359.554 61.5305 360.078 61.3099Z" fill="#170C2C"/>
<path d="M365.007 60.137C365.531 59.9164 365.683 59.0904 365.347 58.2921C365.011 57.4938 364.313 57.0254 363.789 57.246C363.266 57.4667 363.113 58.2927 363.45 59.091C363.786 59.8893 364.483 60.3576 365.007 60.137Z" fill="#170C2C"/>
<path d="M343.909 141.28C343.909 141.28 331.108 148.693 331.466 150.367C331.825 152.04 342.367 146.658 342.367 146.658C342.367 146.658 331.114 155.27 331.472 157.186C331.831 159.101 343.921 151.504 343.921 151.504C343.921 151.504 335.307 158.559 335.665 159.996C336.024 161.433 345.872 156.049 349.662 155.571C353.453 155.093 386.031 146.586 389.86 142.28C393.689 137.974 407.995 108.864 407.995 108.864" stroke="#170C2C" stroke-width="3" stroke-linejoin="bevel"/>
<path d="M394.834 87.8963C392.209 87.7768 379.151 122.819 379.151 122.819L346.492 137.233H342.873" stroke="#170C2C" stroke-width="3" stroke-linejoin="bevel"/>
<path d="M352.304 155.183C352.304 155.183 375.667 148.44 385.433 142.772C390.585 139.781 395.315 133.522 395.315 133.522" stroke="white" stroke-width="3" stroke-miterlimit="10"/>
<path d="M120.097 137.321C120.097 137.321 132.12 146.959 131.761 148.635C131.402 150.311 120.455 144.688 120.455 144.688C120.455 144.688 130.784 153.09 130.422 155.002C130.061 156.915 117.411 148.83 117.411 148.83C117.411 148.83 125.669 156.702 125.311 158.142C124.952 159.582 114.183 153.478 110.022 151.51C106.56 149.874 75.2744 141.143 70.4279 137.122C64.3742 132.099 51.6924 104.806 51.6924 104.806" stroke="#170C2C" stroke-width="3" stroke-linejoin="bevel"/>
<path d="M64.8457 83.8353C67.5839 83.7157 82.5898 117.598 82.5898 117.598L115.162 133.175H118.299" stroke="#170C2C" stroke-width="3" stroke-linejoin="bevel"/>
<path d="M89.9534 145.195C89.9534 145.195 77.1054 140.492 70.973 135.941C67.7333 133.539 64.3652 129.446 64.3652 129.446" stroke="white" stroke-width="3" stroke-miterlimit="10"/>
<path d="M186.973 34.21C182.249 43.5391 177.977 54.5037 181.141 58.9905C187.122 67.4654 221.193 38.7667 221.193 38.7667C221.193 38.7667 213.145 48.9879 217.268 53.1015C219.974 55.804 230.801 53.9761 236.928 52.6787" stroke="white" stroke-width="2" stroke-linejoin="bevel"/>
<path d="M172.586 117.021C180.622 107.08 190.732 93.1704 188.198 89.1618C184.098 82.7043 160.988 101.698 159.883 100.616C158.778 99.5347 167.404 86.8878 162.715 82.2991C160.42 80.0484 151.144 81.6111 142.262 83.7947" stroke="white" stroke-width="2" stroke-miterlimit="10"/>
<path d="M103.977 56.5328C103.977 56.5328 101.913 56.1742 101.015 56.9381" stroke="#170C2C" stroke-width="3" stroke-miterlimit="10"/>
<path d="M107.001 55.253C107.001 55.253 109.127 53.9964 110.048 55.5066" stroke="#170C2C" stroke-width="3" stroke-miterlimit="10"/>
<path d="M239.456 73.9963C231.416 71.9293 198.208 63.8917 193.82 71.0401C188.842 79.1536 222.89 91.8529 221.933 100.552C221.615 103.447 202.314 99.5057 200.646 101.899C199.243 103.908 201.868 108.896 204.696 113.211" stroke="white" stroke-width="2" stroke-miterlimit="10"/>
<path d="M241.893 94.52C240.241 94.0286 238.669 93.2978 237.228 92.351C233.128 89.7272 230.725 86.1529 231.862 84.3862C232.95 82.6895 236.907 83.2667 240.849 85.6457L241.893 94.52Z" fill="white"/>
<path d="M151.117 102.104C152.443 99.1657 151.965 96.0833 150.049 95.2193C148.133 94.3553 145.506 96.0368 144.18 98.9751C142.854 101.913 143.332 104.996 145.248 105.86C147.164 106.724 149.792 105.042 151.117 102.104Z" fill="white"/>
<path d="M214.018 28.0938C212.785 30.8284 208.533 31.5776 204.524 29.7672C203.578 29.346 202.694 28.7956 201.899 28.1317C205.918 26.8853 210.017 25.9113 214.167 25.2163C214.464 26.1623 214.411 27.1834 214.018 28.0938Z" fill="white"/>
<path d="M185.577 78.5801C186.086 77.0815 184.024 75.0262 180.971 73.9895C177.918 72.9528 175.031 73.3274 174.521 74.826C174.012 76.3247 176.074 78.3799 179.127 79.4166C182.18 80.4533 185.068 80.0788 185.577 78.5801Z" fill="white"/>
</g>
<defs>
<clipPath id="clip0">
<rect width="468" height="284.647" fill="white" transform="translate(0 23.916)"/>
</clipPath>
</defs>
</svg>
