<svg width="20" height="20" viewBox="0 0 20 20" fill="none" xmlns="http://www.w3.org/2000/svg">
    <path fill-rule="evenodd" clip-rule="evenodd"
          d="M1.49813 15.2624C0.539326 13.7331 0 11.934 0 10C0 4.48276 4.49438 0 10.0075 0C15.5206 0 20 4.48276 20 10C20 15.5172 15.5206 20 10.0075 20C8.20974 20 6.51685 19.5202 5.06367 18.6957C4.93002 18.6198 4.80773 18.5313 4.69613 18.4346L0 20L1.55149 15.3455C1.53362 15.3183 1.51583 15.2906 1.49813 15.2624Z"
          fill="url(#paint0_linear)"/>
    <path d="M5 7.53227C5 6.96215 5.17978 6.287 5.58427 5.65687C5.79401 5.3268 6.06367 5.02673 6.37828 4.78668C6.54308 4.66665 6.67791 4.51662 6.82772 4.39659C7.0075 4.24656 7.20225 4.15654 7.44196 4.17155C7.62173 4.18655 7.77155 4.26157 7.90638 4.38159C8.08615 4.53162 8.25095 4.71166 8.3708 4.9067C8.62548 5.29679 8.89514 5.68687 9.10488 6.10696C9.19477 6.30201 9.26968 6.49705 9.29964 6.7221C9.35957 7.12718 9.22473 7.45725 8.92511 7.74232C8.77529 7.87734 8.64046 7.99737 8.49065 8.1324C8.40076 8.20742 8.31087 8.26743 8.22098 8.32744C8.01125 8.47747 7.86143 8.67252 7.83147 8.94257C7.81649 9.10761 7.83147 9.28765 7.87641 9.45268C7.9663 9.76775 8.1311 10.0678 8.31087 10.3379C8.62548 10.803 8.98503 11.2381 9.35957 11.6432C9.65919 11.9582 9.9738 12.2733 10.3334 12.5133C10.5431 12.6634 10.7678 12.7834 11.0225 12.8284C11.3221 12.8884 11.5918 12.8284 11.8165 12.6184C11.8614 12.5884 11.8914 12.5433 11.9364 12.4983C12.1311 12.2733 12.3708 12.0782 12.5955 11.8982C12.9701 11.5981 13.3746 11.5681 13.794 11.7482C14.0787 11.8682 14.3334 12.0482 14.5581 12.2433C14.8427 12.4833 15.1274 12.7384 15.397 12.9934C15.5319 13.1135 15.6367 13.2485 15.7116 13.3985C15.9214 13.7736 15.8914 14.1037 15.5768 14.4038C15.3221 14.6588 15.0525 14.8989 14.7678 15.1239C14.2884 15.499 13.7491 15.724 13.1498 15.8141C12.4307 15.9191 11.7416 15.8291 11.0674 15.574C10.4083 15.334 9.809 14.9739 9.23971 14.5388C8.52061 13.9837 7.87641 13.3385 7.27716 12.6484C6.88765 12.1983 6.51311 11.7182 6.18352 11.2081C5.79401 10.6079 5.46442 9.9928 5.2397 9.31765C5.10487 8.79254 5 8.25243 5 7.53227Z"
          fill="white"/>
    <defs>
        <linearGradient id="paint0_linear" x1="10.0001" y1="0" x2="10.0001" y2="20.0001" gradientUnits="userSpaceOnUse">
            <stop stop-color="#11BC3C"/>
            <stop offset="1" stop-color="#27B64A"/>
        </linearGradient>
    </defs>
</svg>
